<?xml version="1.0" encoding="utf-8"?>
<!-- Generator: Adobe Illustrator 25.0.1, SVG Export Plug-In . SVG Version: 6.00 Build 0)  -->
<svg version="1.1" id="圖層_1" xmlns="http://www.w3.org/2000/svg" xmlns:xlink="http://www.w3.org/1999/xlink" x="0px" y="0px"
	 viewBox="0 0 400 150" style="enable-background:new 0 0 400 150;" xml:space="preserve">
<style type="text/css">
	.st0{fill:none;}
	.st1{fill:#E6F31E;}
	.st2{fill:#263E44;}
</style>
<g>
	<rect y="0" class="st0" width="400" height="150"/>
	<g>
		<circle class="st1" cx="174.8" cy="75" r="31.7"/>
		<path class="st2" d="M191.5,56.8h-3.7c-0.5,0-1,0.2-1.4,0.6l-11.6,12.3l-11.6-12.3c-0.3-0.4-0.8-0.6-1.4-0.6h-3.8
			c-1,0-1.8,0.8-1.8,1.8v11v16v6.9c0,1,0.8,1.8,1.8,1.8h3.8c0.5,0,1-0.2,1.4-0.6l7-7.7c0.2-0.2,0.2-0.5,0-0.8l-3.4-4
			c-0.2-0.3-0.7-0.3-0.9,0l-3.4,5.3c0,0,0.6-5.4,0.6-10.6c0-5.2-0.6-10.2-0.6-10.2L174,78.2c0.5,0.6,1.3,0.6,1.8,0L187,65.7
			c0,0-0.6,5-0.6,10.1s0.6,10.6,0.6,10.6l-3.4-5.2c-0.2-0.3-0.7-0.3-0.9,0l-3.4,4c-0.2,0.2-0.2,0.5,0,0.8l7.1,7.7
			c0.3,0.4,0.8,0.6,1.4,0.6h3.7c1,0,1.8-0.8,1.8-1.8v-6.9v-16v-11C193.3,57.6,192.5,56.8,191.5,56.8z"/>
		<g>
			<path class="st2" d="M74.8,102.5c0.3-1.5,0.6-3,0.9-4.5c1,0.1,2,0.3,3,0.3c2.9,0.1,5.7,0.3,8.6,0.3c2.1,0,4.3-0.1,6.4-0.1
				c0.3,0,0.6-0.1,0.8-0.1c1.3-0.4,2.1-1.2,1.9-2.8c-0.2-2-2-2-4.1-2s-5.2,0-8.5,0s-5.2-1.7-6.3-3.2c-1.1-1.6-1.5-4.4,0.3-6.7
				c0.3-0.4,0.6-0.7,0.9-1c-0.6-0.5-1.2-1.1-1.7-1.6c-1.4-1.3-2.1-2.9-2.4-4.8c-0.3-1.8-0.3-3.9,0.1-6.1c1-5.4,7.3-7.5,9.9-7.8
				c2-0.2,5.8-0.3,8.5,0.2c0.1,0,2.3-4,2.3-4l6.7,0.1c0,0-2.7,4-4.1,6c0.3,0.3,0.5,0.5,0.8,0.7c1.8,1.6,2.8,3.7,3,5.8
				c0.2,2.1,0.2,4.3-0.3,6.3c-0.9,3.3-3.3,5.2-6.4,6.4c-1.8,0.7-3.7,0.8-5.6,0.7c-2.2,0-4.4-0.2-6.6-0.3c-0.4,0-0.6,0.1-0.7,0.4
				c-0.1,0.6-0.2,1.1-0.2,1.7c0,0.8,0.5,1.3,1.3,1.6c0.6,0.2,1.2,0.3,1.7,0.3c3.4,0,6.8,0,10.2,0c2.5,0,4.6,0.7,6.3,2.6
				c0.7,0.8,2.2,2.6,1.4,6.9c-0.4,3-3.2,5.7-6.3,6.1c-0.8,0.1-1.5,0.2-2.3,0.2c-4.2,0-8.3,0-12.5-0.1
				C79.5,104.1,77.2,103.5,74.8,102.5z M90.6,79.7c2.3-0.3,3.8-1.5,4.3-3.6c0.4-1.6,0.4-3.2,0.1-4.7c-0.4-2-1.6-3.2-3.5-3.7
				c-2.1-0.5-4.3-0.5-6.4,0c-1.8,0.4-3,1.5-3.4,3.3c-0.4,1.7-0.4,3.4,0,5.2c0.4,1.7,1.5,2.9,3.3,3.3C86.4,79.8,89.2,79.8,90.6,79.7z
				"/>
			<path class="st2" d="M47.6,66.5c0-0.3,0-0.5,0-0.8c0.1-3.5,0.3-7,0.4-10.5c0-0.5,0.2-0.6,0.7-0.6c1.8,0,3.5,0,5.3,0
				c0.5,0,0.6,0.2,0.6,0.6c0,12.8,0,25.6,0,38.4c0,0.5-0.2,0.6-0.6,0.6c-1.5,0-3,0-4.5,0c-0.4,0-0.6-0.1-0.7-0.5
				c-0.3-1.3-0.6-2.7-0.8-4c0,0-0.1,0.1-0.1,0.1c-1.8,3.1-4.4,4.6-8,4.7c-1.9,0.1-5.8,0.1-7.7-1.1c-2.4-1.5-4.7-3-6-6.5
				c-1.3-3.2-1.5-10.1-0.6-15.2c1-5.1,5.1-8,7.9-8.8c3.3-1.1,6.7-1.1,10,0.1C45.9,64.1,47.6,66.5,47.6,66.5z M47.6,74.1
				c-0.2-3.1-1.9-4.9-4.9-5.5c-1.7-0.3-3.5-0.3-5.2,0c-2.6,0.4-4.2,1.9-4.7,4.4c-0.7,3.8-0.7,7.6,0.1,11.4c0.5,2.3,1.9,3.7,4.3,4.2
				c1.8,0.3,3.6,0.4,5.4,0c2.9-0.6,4.6-2.4,5-5.4C47.6,81.5,47.6,75.5,47.6,74.1z"/>
			<path class="st2" d="M130.8,62.9c2.1,0,4,0,6,0c0,1.7,0,3.4,0,5.2c-2,0-4,0-6,0c0,0.3,0,0.5,0,0.7c0,5.8,0,11.7,0,17.5
				c0,1.8,0.8,2.6,2.6,2.6c1.2,0,2.3,0,3.5,0c0,0,0.1,0,0.2,0.1c0,0.5,0,1,0,1.5c0,0.9,0,1.7,0,2.6c0,0.4-0.1,0.6-0.5,0.6
				c-2.1,0.2-4.1,0.5-6.2,0.6c-3.2,0.1-5.9-2.4-6.3-5.6c-0.1-0.7-0.1-1.3-0.1-2c0-5.9,0-11.8,0-17.7c0-0.3,0-0.5,0-0.9
				c-1.2,0-2.4,0-3.6,0c0-1.7,0-3.3,0-4.9c1.2-0.1,2.4-0.2,3.6-0.2c0-2,0-4,0-6c2.3,0,4.5,0,6.8,0C130.8,58.9,130.8,60.8,130.8,62.9
				z"/>
			<path class="st2" d="M114.5,62.9c-0.4,0-4.7,0-5.3,0c-0.7,0-0.8,0.1-0.8,0.8c0,7.6,0,15.3,0,22.9c0,2.3,0,4.7,0,7
				c0,0.5,0.2,0.7,0.7,0.6c0.8,0,3.6,0,5.7,0c0.5,0,0.5-0.3,0.5-0.6c0-10.1,0-20.1,0-30.2C115.2,63,115,62.9,114.5,62.9z"/>
			<path class="st2" d="M114.6,54.7c-2.1,0-3.5,0-5.6,0c-0.4,0-0.6,0.1-0.6,0.6c0,1.4,0,2.9,0,4.3c0,0.3,0,0.5,0.4,0.5
				c2.2,0,3.7,0,5.9,0c0.4,0,0.4-0.2,0.4-0.5c0-1.5,0-2.9,0-4.3C115.2,54.8,115,54.7,114.6,54.7z"/>
			<path class="st2" d="M67.8,62.9c-0.4,0-4.7,0-5.3,0c-0.7,0-0.8,0.1-0.8,0.8c0,7.6,0,15.3,0,22.9c0,2.3,0,4.7,0,7
				c0,0.5,0.2,0.7,0.7,0.6c0.8,0,3.6,0,5.7,0c0.5,0,0.5-0.3,0.5-0.6c0-10.1,0-20.1,0-30.2C68.5,63,68.3,62.9,67.8,62.9z"/>
			<path class="st2" d="M67.9,54.7c-2.1,0-3.5,0-5.6,0c-0.4,0-0.6,0.1-0.6,0.6c0,1.4,0,2.9,0,4.3c0,0.3,0,0.5,0.4,0.5
				c2.2,0,3.7,0,5.9,0c0.4,0,0.4-0.2,0.4-0.5c0-1.5,0-2.9,0-4.3C68.5,54.8,68.3,54.7,67.9,54.7z"/>
		</g>
		<g>
			<path class="st2" d="M230.1,63v-1.4h3.9V63h5.8v3.4h1.4v3.7h-1.4v3.6H234v0.9h6.4V81h-7c-0.2,0.3-0.4,0.6-0.6,0.9h9.1V85h-3.6
				c-0.6,0.9-1.2,1.7-1.8,2.3c1.2,0.4,2.3,0.8,3.2,1.1c1.9-1.4,3.6-3.1,4.8-4.9c0,0,0,0,0,0c-0.9-2.2-1.5-4.7-1.9-7.6
				c-0.3,0.5-0.6,1-0.9,1.5l-1.4-4.5c1.7-3.2,3-7,3.8-11.6l3.8,0.9c-0.3,1.5-0.7,3-1.1,4.3h6.3v3.8h-1.3c-0.2,5-0.9,9.1-2.3,12.3
				c-0.2,0.4-0.4,0.8-0.6,1.2c1.1,1.6,2.6,3.1,4.4,4.6l-2.6,4.1c-1.6-1.7-3-3.4-4.1-5.1c-1.3,1.7-3,3.3-4.8,4.8l-1.6-2.5l-1.1,2.2
				c-1.6-0.7-3.5-1.4-5.5-2c-2.3,1.2-5.5,2.1-9.6,2.7l-1.2-3.3c2.4-0.1,4.5-0.3,6.1-0.8c-1.5-0.4-3.2-0.8-4.8-1.2
				c0.9-0.7,1.6-1.5,2.3-2.2h-4.3v-3.2h6.8c0.2-0.3,0.4-0.6,0.5-0.9h-6v-6.4h6.7v-0.9h-6.2v-3.6h-1.6v-3.7h1.6V63H230.1z
				 M230.4,77.1h-3.3v1.2h3.3V77.1z M230.3,66.9v-1.3h-2.6v1.3H230.3z M230.3,69.7h-2.6V71h2.6V69.7z M230.4,85
				c-0.2,0.2-0.3,0.4-0.4,0.5c1.1,0.3,2.1,0.6,3.1,0.8c0.5-0.4,1-0.9,1.4-1.3H230.4z M233.6,66.9h2.5v-1.3h-2.5V66.9z M236.2,69.7
				h-2.5V71h2.5V69.7z M236.8,77.1h-3v1.2h3V77.1z M246.7,79.4c0.8-2.3,1.2-5,1.2-8v-1.1h-2.4c-0.1,0.3-0.3,0.6-0.4,0.9
				C245.4,74.4,246,77.2,246.7,79.4z"/>
			<path class="st2" d="M287.8,70.6v3.7l-6.2,4.9h11.6v4.1H281v5.2c0,1.2-0.4,2.1-1.2,2.7c-0.8,0.5-1.9,0.8-3.4,0.8H271l-0.7-4.1
				c2.3,0.2,3.8,0.3,4.3,0.3c1.1,0,1.7-0.5,1.7-1.6v-3.4h-13v-4.1h13v-0.7l4.8-3.9h-12.4v-3.9H287.8z M280.9,64.3h11.9v7.2h-4.2
				v-3.3H268v3.3h-4.2v-7.2h11.7c-0.3-0.8-0.7-1.6-1.1-2.2l5.5-0.5C280.2,62.5,280.6,63.4,280.9,64.3z"/>
			<path class="st2" d="M323.6,63.2h10.8v3.3h-4.8v1h3.7v2.8h-3.7v3.6h-15.9v-3.6h-3v-2.8h3v-1h-4.1v8.1h24.8v2.9h-24.8
				c-0.2,5.4-1.2,10.2-3,14.3l-3.7-3.2c1.8-3.4,2.8-7.9,2.8-13.4V63.2h13c-0.1-0.6-0.3-1.2-0.4-1.8l5-0.4
				C323.4,61.8,323.5,62.5,323.6,63.2z M332.7,78.3V88h-6.3c2.3,0.4,4.9,1,7.9,1.7l-1.6,3c-3.8-1.3-7.3-2.2-10.5-2.9l1.4-1.8h-5.2
				l1.7,1.9c-3.4,1.2-6.7,2.1-10,2.6l-1.6-3.1c2.8-0.3,5.6-0.7,8.5-1.4H311v-9.7H332.7z M319.6,82.1v-1h-4.7v1H319.6z M319.6,84.3
				h-4.7v0.9h4.7V84.3z M317.9,67.6h7.5v-1h-7.5V67.6z M317.9,71.4h7.5v-1.1h-7.5V71.4z M323.8,82.1h5v-1h-5V82.1z M328.8,84.3h-5
				v0.9h5V84.3z"/>
			<path class="st2" d="M353.4,62.9c-0.4,1.1-0.9,2.1-1.3,3.1h5.5v-4.4h4.6V66h10.5v3.8h-10.5v4H375v3.9h-31v-3.9h13.6v-4h-7.4
				c-0.6,1.1-1.2,2.1-1.9,3l-4.1-2.9c2-2,3.6-4.5,4.6-7.6L353.4,62.9z M371.9,92.5h-24.5V79.6h24.5V92.5z M367.3,88.7v-5.3H352v5.3
				H367.3z"/>
		</g>
	</g>
</g>
</svg>
